ply
format ascii 1.0
comment Created by Blender 2.59 (sub 0) - www.blender.org, source file: 'simple_anim2.blend'
element vertex 113
property float x
property float y
property float z
property float nx
property float ny
property float nz
property float s
property float t
element face 60
property list uchar uint vertex_indices
end_header
4.512357 -1.000004 4.296158 0.961595 -0.000000 0.274472 0.752382 0.245751 
4.512358 0.999996 4.296158 0.961595 -0.000000 0.274472 0.752766 0.370783 
3.966774 0.999996 6.207576 0.961595 -0.000000 0.274472 0.877033 0.370402 
4.512357 -1.000004 4.296158 0.961595 -0.000001 0.274472 0.752382 0.245751 
3.966774 0.999996 6.207576 0.961595 -0.000001 0.274472 0.877033 0.370402 
3.966773 -1.000004 6.207576 0.961595 -0.000001 0.274472 0.876649 0.245370 
2.579462 -1.000003 3.744444 0.274472 -0.000000 -0.961595 0.499238 0.370536 
2.579463 0.999997 3.744444 0.274472 -0.000000 -0.961595 0.374206 0.370152 
4.512358 0.999996 4.296158 0.274472 -0.000000 -0.961595 0.373820 0.495815 
4.512357 -1.000004 4.296158 0.274472 -0.000000 -0.961595 0.498852 0.496199 
2.579463 0.999997 3.744444 0.000001 1.000000 -0.000000 0.874337 0.749436 
2.033880 0.999997 5.655862 0.000001 1.000000 -0.000000 0.873956 0.873703 
3.966774 0.999996 6.207576 0.000001 1.000000 -0.000000 0.999619 0.874089 
4.512358 0.999996 4.296158 0.000001 1.000000 -0.000000 1.000000 0.749822 
2.033880 0.999997 5.655862 -0.274472 0.000000 0.961595 0.125794 0.370152 
2.033878 -1.000003 5.655862 -0.274472 0.000000 0.961595 0.000762 0.370536 
3.966773 -1.000004 6.207576 -0.274472 0.000000 0.961595 0.001148 0.496199 
3.966774 0.999996 6.207576 -0.274472 0.000000 0.961595 0.126180 0.495815 
2.033878 -1.000003 5.655862 -0.000001 -1.000000 0.000000 0.373956 0.622496 
2.579462 -1.000003 3.744444 -0.000001 -1.000000 0.000000 0.374337 0.746762 
4.512357 -1.000004 4.296158 -0.000001 -1.000000 0.000000 0.500000 0.746377 
3.966773 -1.000004 6.207576 -0.000001 -1.000000 0.000000 0.499619 0.622110 
0.143936 -1.000001 5.116409 -0.000001 -1.000000 0.000000 0.251085 0.622873 
0.689520 -1.000002 3.204991 -0.000001 -1.000000 0.000000 0.251466 0.747139 
0.143938 0.999999 5.116409 -0.274472 0.000000 0.961595 0.125418 0.247281 
0.143936 -1.000001 5.116409 -0.274472 0.000000 0.961595 0.000385 0.247665 
0.689521 0.999998 3.204991 0.000001 1.000000 -0.000000 0.751466 0.749059 
0.143938 0.999999 5.116409 0.000001 1.000000 -0.000000 0.751085 0.873326 
0.689520 -1.000002 3.204991 0.274472 -0.000000 -0.961595 0.499615 0.247665 
0.689521 0.999998 3.204991 0.274472 -0.000000 -0.961595 0.374582 0.247281 
-1.257602 -1.000001 2.688525 0.256635 -0.000266 -0.966508 0.500000 0.122002 
-1.257400 0.999999 2.688028 0.256635 -0.000266 -0.966508 0.374968 0.121618 
0.689521 0.999998 3.204991 0.256635 -0.000266 -0.966508 0.374582 0.247281 
-1.257602 -1.000001 2.688525 0.256380 -0.000000 -0.966576 0.500000 0.122002 
0.689521 0.999998 3.204991 0.256380 -0.000000 -0.966576 0.374582 0.247281 
0.689520 -1.000002 3.204991 0.256380 -0.000000 -0.966576 0.499615 0.247665 
-1.257400 0.999999 2.688028 0.000001 1.000000 -0.000000 0.625803 0.748674 
-1.788957 1.000000 4.564695 0.000001 1.000000 -0.000000 0.625422 0.872941 
-1.788957 1.000000 4.564695 -0.274472 0.000001 0.961595 0.125032 0.121618 
-1.788959 -1.000000 4.564696 -0.274472 0.000001 0.961595 0.000000 0.122002 
0.143936 -1.000001 5.116409 -0.274472 0.000001 0.961595 0.000385 0.247665 
-1.788957 1.000000 4.564695 -0.274472 0.000000 0.961595 0.125032 0.121618 
-1.788959 -1.000000 4.564696 -0.000001 -1.000000 0.000000 0.125422 0.623258 
-1.257602 -1.000001 2.688525 -0.000001 -1.000000 0.000000 0.125803 0.747525 
-2.346801 1.000001 6.519067 -0.274472 0.000000 0.961595 0.877798 0.495815 
-4.269991 1.000001 5.970124 -0.274472 0.000000 0.961595 0.877414 0.370783 
-2.346802 -0.999999 6.519067 -0.274472 0.000000 0.961595 0.752766 0.496199 
-4.269992 -0.999998 5.970124 -0.274472 0.000000 0.961595 0.752382 0.371167 
-1.788959 -1.000000 4.564696 0.961595 -0.000001 0.274472 0.126180 0.495815 
-1.788957 1.000000 4.564695 0.961595 -0.000001 0.274472 0.251212 0.496199 
-2.346801 1.000001 6.519067 0.961595 -0.000001 0.274472 0.251602 0.369139 
-2.346802 -0.999999 6.519067 0.961595 -0.000001 0.274472 0.126570 0.368756 
-3.745509 -0.999999 3.972516 -0.000001 -1.000000 0.000000 0.000390 0.623642 
-2.346802 -0.999999 6.519067 -0.000001 -1.000000 0.000000 0.125032 0.496199 
-4.269992 -0.999998 5.970124 -0.000001 -1.000000 0.000000 0.000000 0.496582 
-3.744770 1.000001 3.973472 -0.967218 0.000479 -0.253948 0.501155 0.119457 
-3.745509 -0.999999 3.972516 -0.967218 0.000479 -0.253948 0.626187 0.119840 
-4.269992 -0.999998 5.970124 -0.967218 0.000479 -0.253948 0.626577 -0.007219 
-3.744770 1.000001 3.973472 -0.967100 0.000000 -0.254396 0.501155 0.119457 
-4.269992 -0.999998 5.970124 -0.967100 0.000000 -0.254396 0.626577 -0.007219 
-4.269991 1.000001 5.970124 -0.967100 0.000000 -0.254396 0.501544 -0.007603 
-1.788957 1.000000 4.564695 0.000000 1.000000 -0.000000 0.625422 0.872941 
-3.744770 1.000001 3.973472 0.000000 1.000000 -0.000000 0.500390 0.872557 
-4.269991 1.000001 5.970124 0.000000 1.000000 -0.000000 0.500000 0.999616 
-2.346801 1.000001 6.519067 0.000000 1.000000 -0.000000 0.625032 1.000000 
-1.257400 0.999999 2.688028 0.000000 1.000000 -0.000000 0.625803 0.748674 
-3.045491 1.000000 1.867718 0.000000 1.000000 -0.000000 0.500771 0.748290 
-3.045491 1.000000 1.867718 -0.949027 0.000457 -0.315194 0.500773 0.243724 
-3.048238 -0.999999 1.873085 -0.949027 0.000457 -0.315194 0.625806 0.244107 
-3.745509 -0.999999 3.972516 -0.949027 0.000457 -0.315194 0.626187 0.119840 
-3.045491 1.000000 1.867718 -0.949039 0.000501 -0.315157 0.500773 0.243724 
-3.745509 -0.999999 3.972516 -0.949039 0.000501 -0.315157 0.626187 0.119840 
-3.744770 1.000001 3.973472 -0.949039 0.000501 -0.315157 0.501155 0.119457 
-3.048238 -0.999999 1.873085 -0.000001 -1.000000 0.000000 0.000771 0.747908 
-0.267247 -1.000001 1.193916 0.833320 -0.000408 0.552790 0.626960 0.370783 
-0.266699 0.999999 1.194564 0.833320 -0.000408 0.552790 0.751992 0.371166 
-1.257400 0.999999 2.688028 0.833320 -0.000408 0.552790 0.752382 0.244107 
-0.267247 -1.000001 1.193916 0.833605 0.000053 0.552362 0.626960 0.370783 
-1.257400 0.999999 2.688028 0.833605 0.000053 0.552362 0.752382 0.244107 
-1.257602 -1.000001 2.688525 0.833605 0.000053 0.552362 0.627350 0.243724 
-1.911377 -1.000000 0.130364 -0.000000 -1.000000 -0.000000 0.001161 0.874968 
-0.267247 -1.000001 1.193916 -0.000000 -1.000000 -0.000000 0.126193 0.874584 
-1.257602 -1.000001 2.688525 -0.000000 -1.000000 -0.000000 0.125803 0.747525 
-3.048238 -0.999999 1.873085 -0.000000 -1.000000 -0.000000 0.000771 0.747908 
-1.911377 1.000000 0.130364 -0.837544 0.000000 -0.546370 0.500384 0.370783 
-1.911377 -1.000000 0.130364 -0.837544 0.000000 -0.546370 0.625416 0.371166 
-3.048238 -0.999999 1.873085 -0.837544 0.000000 -0.546370 0.625806 0.244107 
-1.911377 1.000000 0.130364 -0.837377 -0.000317 -0.546626 0.500384 0.370783 
-3.048238 -0.999999 1.873085 -0.837377 -0.000317 -0.546626 0.625806 0.244107 
-3.045491 1.000000 1.867718 -0.837377 -0.000317 -0.546626 0.500773 0.243724 
-0.266699 0.999999 1.194564 0.000000 1.000000 0.000000 0.626193 0.621614 
-1.911377 1.000000 0.130364 0.000000 1.000000 0.000000 0.501161 0.621231 
0.857903 1.000000 -0.445040 0.000000 1.000000 0.000000 0.626577 0.496582 
-0.814439 1.000000 -1.541977 0.000000 1.000000 0.000000 0.501544 0.496199 
-0.814439 -1.000000 -1.541978 -0.836171 0.000000 -0.548469 0.625032 0.496199 
-1.911377 -1.000000 0.130364 -0.836171 0.000000 -0.548469 0.625416 0.371166 
-1.911377 1.000000 0.130364 -0.836171 0.000000 -0.548469 0.500384 0.370783 
-0.814439 1.000000 -1.541977 -0.836171 0.000000 -0.548469 0.500000 0.495815 
0.857902 -1.000000 -0.445040 -0.000000 -1.000000 -0.000000 0.126577 0.999616 
-0.814439 -1.000000 -1.541978 -0.000000 -1.000000 -0.000000 0.001544 1.000000 
-0.267247 -1.000001 1.193916 -0.000001 -1.000000 -0.000000 0.126193 0.874584 
-1.911377 -1.000000 0.130364 -0.000001 -1.000000 -0.000000 0.001161 0.874968 
-0.814439 -1.000000 -1.541978 -0.000001 -1.000000 -0.000000 0.001544 1.000000 
0.857903 1.000000 -0.445040 0.824658 -0.000000 0.565631 0.751609 0.496199 
-0.266699 0.999999 1.194564 0.824658 -0.000000 0.565631 0.751992 0.371166 
0.857902 -1.000000 -0.445040 0.824658 -0.000000 0.565631 0.626577 0.495815 
-0.266699 0.999999 1.194564 0.824425 -0.000409 0.565971 0.751992 0.371166 
-0.267247 -1.000001 1.193916 0.824425 -0.000409 0.565971 0.626960 0.370783 
0.857902 -1.000000 -0.445040 0.824425 -0.000409 0.565971 0.626577 0.495815 
0.857903 1.000000 -0.445040 0.548469 -0.000000 -0.836171 0.251212 0.368756 
0.857902 -1.000000 -0.445040 0.548469 -0.000000 -0.836171 0.251596 0.243724 
-0.814439 -1.000000 -1.541978 0.548469 -0.000000 -0.836171 0.126564 0.243340 
-0.814439 1.000000 -1.541977 0.548469 -0.000000 -0.836171 0.126180 0.368372 
3 0 1 2
3 3 4 5
3 6 7 8
3 6 8 9
3 10 11 12
3 10 12 13
3 14 15 16
3 14 16 17
3 18 19 20
3 18 20 21
3 22 23 19
3 22 19 18
3 24 25 15
3 24 15 14
3 26 27 11
3 26 11 10
3 28 29 7
3 28 7 6
3 30 31 32
3 33 34 35
3 36 37 27
3 36 27 26
3 38 39 40
3 41 25 24
3 42 43 23
3 42 23 22
3 44 45 46
3 45 47 46
3 48 49 50
3 48 50 51
3 52 42 53
3 52 53 54
3 55 56 57
3 58 59 60
3 61 62 63
3 61 63 64
3 65 66 62
3 65 62 61
3 67 68 69
3 70 71 72
3 73 43 42
3 73 42 52
3 74 75 76
3 77 78 79
3 80 81 82
3 80 82 83
3 84 85 86
3 87 88 89
3 90 91 66
3 90 66 65
3 90 92 93
3 90 93 91
3 94 95 96
3 94 96 97
3 98 81 99
3 100 101 102
3 103 104 105
3 106 107 108
3 109 110 111
3 109 111 112
